<svg width="10" height="10" viewBox="0 0 10 10" fill="currentColor" xmlns="http://www.w3.org/2000/svg">
<g id="Iconly/Bold/Delete">
<g id="Delete">
<path id="Delete_2" fill-rule="evenodd" clip-rule="evenodd" d="M8.45297 2.18424C8.61506 2.18424 8.75 2.31883 8.75 2.49007V2.64841C8.75 2.81549 8.61506 2.95424 8.45297 2.95424H1.54744C1.38494 2.95424 1.25 2.81549 1.25 2.64841V2.49007C1.25 2.31883 1.38494 2.18424 1.54744 2.18424H2.76232C3.0091 2.18424 3.22388 2.00883 3.27939 1.76133L3.34301 1.47717C3.44189 1.09009 3.76729 0.833008 4.1397 0.833008H5.8603C6.22866 0.833008 6.5577 1.09009 6.65293 1.45675L6.72101 1.76092C6.77612 2.00883 6.9909 2.18424 7.23809 2.18424H8.45297ZM7.83567 7.97175C7.96251 6.78968 8.18457 3.98138 8.18457 3.95304C8.19268 3.86721 8.16472 3.78596 8.1092 3.72055C8.04963 3.6593 7.97426 3.62305 7.89119 3.62305H2.11179C2.02832 3.62305 1.94889 3.6593 1.89378 3.72055C1.83786 3.78596 1.8103 3.86721 1.81436 3.95304C1.8151 3.95825 1.82307 4.05717 1.83639 4.22255C1.89557 4.95723 2.0604 7.00348 2.16691 7.97175C2.24228 8.68508 2.71032 9.13341 3.38827 9.14966C3.91142 9.16174 4.45038 9.16591 5.00149 9.16591C5.52059 9.16591 6.0478 9.16174 6.58716 9.14966C7.28861 9.13757 7.75625 8.69716 7.83567 7.97175Z" fill="currentColor"/>
</g>
</g>
</svg>
