<svg width="8" height="8" viewBox="0 0 8 8" fill="currentColor" xmlns="http://www.w3.org/2000/svg">
<g id="Edit">
<path id="Edit_2" fill-rule="evenodd" clip-rule="evenodd" d="M2.90683 7.34496L6.56783 2.6106C6.76679 2.35529 6.83754 2.06012 6.77121 1.75958C6.71374 1.48636 6.54572 1.22657 6.29369 1.02949L5.67911 0.541277C5.14411 0.115766 4.48088 0.160557 4.10063 0.648774L3.68944 1.18223C3.63638 1.24897 3.64964 1.34751 3.71597 1.40125C3.71597 1.40125 4.75501 2.23436 4.77712 2.25227C4.84787 2.31946 4.90092 2.40904 4.91419 2.51654C4.9363 2.72705 4.79039 2.92413 4.57373 2.95101C4.47204 2.96444 4.37477 2.93309 4.30402 2.87486L3.21192 2.00593C3.15886 1.96606 3.07927 1.97457 3.03506 2.02832L0.439641 5.38761C0.271624 5.59813 0.214145 5.87135 0.271624 6.13561L0.603236 7.57339C0.620922 7.64953 0.687244 7.70328 0.766831 7.70328L2.22592 7.68537C2.49121 7.68089 2.73882 7.55995 2.90683 7.34496ZM4.94973 6.89746H7.32894C7.56107 6.89746 7.74986 7.08872 7.74986 7.32387C7.74986 7.55946 7.56107 7.75027 7.32894 7.75027H4.94973C4.71761 7.75027 4.52881 7.55946 4.52881 7.32387C4.52881 7.08872 4.71761 6.89746 4.94973 6.89746Z" fill="currentColor"/>
</g>
</svg>
